<?xml version="1.0" encoding="UTF-8" standalone="no"?>
<!DOCTYPE svg PUBLIC "-//W3C//DTD SVG 1.1//EN" "http://www.w3.org/Graphics/SVG/1.1/DTD/svg11.dtd">
<svg width="100%" height="100%" viewBox="0 0 680 179" version="1.1" xmlns="http://www.w3.org/2000/svg" xmlns:xlink="http://www.w3.org/1999/xlink" xml:space="preserve" xmlns:serif="http://www.serif.com/" style="fill-rule:evenodd;clip-rule:evenodd;stroke-linejoin:round;stroke-miterlimit:2;">
    <g transform="matrix(1.07432,0,0,1.07428,-187.592,-604.146)">
        <g transform="matrix(1,0,0,1,-54.0545,-4.44294)">
            <path d="M336.774,674.818C344.22,645.533 354.029,605.872 360.373,577.32C360.837,575.23 362.91,573.911 365,574.375C367.09,574.84 368.409,576.913 367.945,579.003C363.97,596.893 358.638,619.136 353.375,640.469C360.871,631.273 369.373,627.634 379.331,628.402C389.092,629.156 397.151,633.918 402.315,643.25C407.038,651.786 409.296,664.451 407.69,681.78C407.639,682.322 407.584,682.921 407.522,683.569C411.497,681.835 416.218,680.758 421.805,680.658C423.946,680.62 425.714,682.326 425.753,684.467C425.791,686.607 424.084,688.376 421.944,688.414C415.373,688.531 410.322,690.315 406.513,693.025C405.609,700.496 404.252,709.211 402.304,714.963C401.331,717.839 400.144,720.073 398.913,721.419C397.323,723.157 395.506,723.84 393.669,723.72C392.322,723.632 390.922,723 389.861,721.412C388.67,719.631 387.748,714.975 388.647,709.258C389.446,704.168 391.535,698.145 395.544,692.952C396.616,691.563 397.824,690.229 399.18,688.986C399.525,685.828 399.782,683.051 399.966,681.064C401.384,665.765 399.698,654.542 395.528,647.006C391.753,640.184 385.87,636.687 378.734,636.137C367.753,635.289 359.538,642.008 352.021,657.23C349.344,662.65 346.794,669.095 344.316,676.632C341.601,687.311 339.198,696.618 337.387,703.519C335.59,710.371 334.365,714.883 333.986,716.073C332.092,722.024 324.013,724.88 326.587,713.295C329.924,698.278 333.284,685.512 336.774,674.818Z" style="fill:rgb(254,255,254);"/>
        </g>
        <g transform="matrix(1,0,0,1,17.1698,-10.5392)">
            <g transform="matrix(1,0,0,1,-33.7713,2.08419)">
                <path d="M282.653,628.866C283.456,626.881 285.719,625.922 287.703,626.725C289.687,627.529 290.646,629.792 289.843,631.776C286.597,639.798 279.257,647.378 270.765,653.808C261.877,660.538 251.78,666.048 244.44,669.666C254.054,672.574 268.101,678.214 279.293,688.4C287.439,695.814 294.089,705.587 296.631,718.358C297.049,720.458 295.684,722.501 293.584,722.919C291.485,723.337 289.441,721.972 289.024,719.872C286.238,705.873 277.643,696.106 268.056,689.316C251.573,677.641 232.079,674.615 232.079,674.615C230.355,674.348 229.021,672.962 228.821,671.229C228.62,669.495 229.601,667.841 231.219,667.187C231.219,667.187 250.586,659.358 266.082,647.624C273.376,642.101 279.865,635.755 282.653,628.866Z" style="fill:rgb(254,255,254);"/>
            </g>
            <g transform="matrix(1,0,0,1,-22.5723,3.73913)">
                <path d="M229.97,580.61C229.92,578.47 231.616,576.692 233.756,576.641C235.896,576.591 237.675,578.287 237.725,580.427C237.775,582.555 236.905,587.915 235.324,595.394C228.334,628.457 207.786,705.904 206.765,720.123C206.611,722.258 204.753,723.867 202.618,723.713C200.483,723.56 198.874,721.702 199.028,719.567C199.349,715.089 201.529,704.486 204.64,690.97C213.539,652.31 230.17,589.084 229.97,580.61Z" style="fill:rgb(254,255,254);"/>
            </g>
        </g>
        <g transform="matrix(0.885262,0,0,0.885262,-5.92272,196.802)">
            <path d="M423.735,541.558C423.512,538.307 423.497,535.031 423.696,531.78C425.283,505.891 440.23,481.965 470.412,483.631C482.757,484.312 490.93,489.488 494.947,496.343C499.5,504.113 498.968,514.406 492.286,524.077C483.782,536.383 464.701,547.994 433.7,550.012C435.15,556.976 437.729,563.482 441.385,568.785C446.037,575.535 452.468,580.291 460.613,581.078C467.324,581.726 473.942,579.018 479.723,575.407C486.896,570.927 492.808,564.955 496.113,561.107C497.052,560.013 497.957,558.804 498.34,558.283C498.837,557.005 499.924,555.978 501.354,555.618C502.41,555.351 503.263,555.505 503.918,555.738C505.027,556.133 505.868,556.861 506.403,557.965C506.667,558.51 507.306,559.915 506.394,561.878C506.216,562.261 505.725,563.091 504.876,564.211C502.728,567.046 497.712,572.781 491.062,578.08C482.44,584.95 471.12,590.896 459.771,589.8C448.988,588.758 440.329,582.694 434.17,573.758C429.639,567.184 426.484,559.02 424.85,550.318C423.953,550.323 423.047,550.321 422.133,550.31C419.715,550.282 417.775,548.297 417.802,545.879C417.83,543.461 419.816,541.52 422.234,541.548C422.737,541.554 423.237,541.557 423.735,541.558ZM500.475,563.788C501.239,564.195 502.227,564.434 503.495,564.114C502.441,564.38 501.379,564.238 500.475,563.788ZM432.492,541.313C453.179,540.086 468.083,534.382 477.533,526.948C486.223,520.113 490.155,511.962 488.941,505.032C487.709,497.994 480.994,492.991 469.93,492.38C445.287,491.02 433.737,511.179 432.442,532.316C432.259,535.306 432.277,538.323 432.492,541.313Z" style="fill:rgb(254,255,254);"/>
        </g>
        <g transform="matrix(1,0,0,1,-8.57757,-8.75698)">
            <g transform="matrix(1,0,0,1,39.6674,138.56)">
                <path d="M405.134,565.881C404.194,563.958 404.991,561.633 406.914,560.692C408.837,559.752 411.162,560.55 412.102,562.472C425.123,589.094 454.903,596.312 481.24,587.666C505.032,579.856 526.099,559.093 530.146,527.624C530.419,525.501 532.365,523.999 534.488,524.272C536.611,524.545 538.113,526.49 537.84,528.614C533.36,563.446 509.994,586.391 483.66,595.036C453.679,604.879 419.956,596.184 405.134,565.881Z" style="fill:rgb(254,255,254);"/>
            </g>
            <g transform="matrix(1,0,0,1,-11.2658,5.13768)">
                <g transform="matrix(0.997254,0.0107459,0.0107459,0.957943,12.0181,152.416)">
                    <path d="M551.364,429.583C551.823,427.39 553.899,425.959 555.996,426.389C558.093,426.819 559.423,428.949 558.963,431.142L534.824,546.363C534.364,548.556 532.289,549.988 530.192,549.557C528.094,549.127 526.765,546.997 527.224,544.804L551.364,429.583Z" style="fill:rgb(254,255,254);"/>
                </g>
                <g transform="matrix(0.922049,-0.000233574,-0.000255789,1.00001,142.675,134.862)">
                    <path d="M448.894,521.6C448.175,523.636 445.8,524.749 443.592,524.086C441.385,523.422 440.176,521.231 440.894,519.196C445.781,505.355 453.129,496.156 461.563,491.465C469.321,487.151 478.076,486.439 487.152,489.493C489.333,490.227 490.459,492.456 489.664,494.466C488.869,496.477 486.453,497.514 484.272,496.78C476.184,494.058 468.447,495.436 461.991,500.813C456.656,505.255 452.202,512.229 448.894,521.6Z" style="fill:rgb(254,255,254);"/>
                </g>
            </g>
            <g transform="matrix(1,0,0,1,5.6914,-2.79575)">
                <g transform="matrix(1,0,0,1,25.0063,140.282)">
                    <path d="M464.24,437.284C464.799,435.217 466.93,433.993 468.997,434.552C471.063,435.111 472.287,437.242 471.728,439.309L441.95,549.424C441.392,551.491 439.26,552.715 437.194,552.156C435.128,551.597 433.904,549.466 434.463,547.399L464.24,437.284Z" style="fill:rgb(254,255,254);"/>
                </g>
                <g transform="matrix(0.922049,-0.000233574,-0.000255789,1.00001,63.0464,140.392)">
                    <path d="M445.418,524.002C444.699,526.038 442.324,527.151 440.116,526.488C437.909,525.824 436.7,523.633 437.418,521.598C442.36,507.599 451.088,498.037 460.863,493.146C469.499,488.826 479.003,488.066 487.82,491.033C490.001,491.767 491.126,493.995 490.331,496.006C489.536,498.017 487.12,499.054 484.939,498.32C476.81,495.584 467.927,497.226 460.408,502.692C454.112,507.268 448.788,514.456 445.418,524.002Z" style="fill:rgb(254,255,254);"/>
                </g>
            </g>
        </g>
        <g transform="matrix(0.745254,0,0,0.745254,138.139,285.718)">
            <g transform="matrix(1,0,0,1,-18.8273,0.253793)">
                <path d="M819.926,492.175C814.924,494.21 810.705,495.563 807.738,496.161C792.006,499.329 780.481,498.804 772.645,496.504C764.967,494.251 760.41,490.209 758.254,485.963C753.005,475.622 761.205,460.934 781.5,459.869C797.462,459.031 812.632,467.119 823.251,479.39C831.504,475.464 841.131,469.987 850.365,463.3C864.038,453.399 876.917,440.841 882.836,426.462C883.93,423.806 886.974,422.537 889.63,423.631C892.286,424.724 893.554,427.768 892.461,430.424C885.857,446.467 871.725,460.684 856.47,471.73C847.36,478.327 837.873,483.791 829.467,487.893C832.284,492.501 834.509,497.458 836.003,502.589C842.392,524.536 835.908,549.547 805.752,563.541C792.67,569.612 772.503,570.211 756.019,560.3C743.691,552.887 733.289,539.663 729.721,518.336C727.791,506.8 729.754,494.301 732.718,481.15C736.37,464.945 741.555,447.668 741.31,429.938C741.083,413.556 736.031,396.8 720.365,380.188C718.395,378.098 718.491,374.802 720.581,372.831C722.67,370.86 725.967,370.957 727.937,373.047C745.794,391.982 751.459,411.121 751.717,429.794C751.974,448.357 746.695,466.472 742.872,483.438C740.226,495.179 738.264,506.32 739.987,516.618C742.928,534.197 751.221,545.27 761.382,551.379C774.639,559.35 790.85,558.982 801.371,554.099C825.519,542.894 831.126,523.073 826.009,505.499C824.653,500.838 822.576,496.326 819.926,492.175ZM813.204,483.681C804.882,475.135 793.792,469.646 782.046,470.263C775.889,470.586 771.259,472.544 768.725,475.432C767.173,477.201 766.56,479.329 767.535,481.251C768.697,483.539 771.439,485.303 775.576,486.517C782.3,488.49 792.184,488.676 805.683,485.957C807.65,485.561 810.21,484.792 813.204,483.681Z" style="fill:rgb(254,255,254);"/>
            </g>
            <g transform="matrix(1,0,0,1,-8.71794,4.01242)">
                <path d="M855.674,492.195C856.674,489.503 859.673,488.129 862.365,489.13C865.057,490.13 866.431,493.128 865.431,495.821C858.52,514.421 853.926,530.487 852.974,542.133C852.623,546.43 852.751,550.039 853.601,552.822C854.09,554.424 854.77,555.691 855.998,556.334C858.218,557.496 861.344,556.952 865.575,555.434C872.397,552.987 881.228,547.725 892.437,539.29C894.732,537.563 897.998,538.024 899.725,540.319C901.452,542.614 900.991,545.88 898.696,547.607C883.399,559.118 871.931,565.06 863.86,566.732C858.561,567.831 854.377,567.235 851.169,565.555C846.183,562.944 843.038,557.452 842.485,549.119C841.653,536.581 846.698,516.353 855.674,492.195Z" style="fill:rgb(254,255,254);"/>
            </g>
        </g>
        <g transform="matrix(0.740181,0,0,0.877285,108.357,69.8203)">
            <path d="M731.903,655.675C736.724,657.221 739.897,660.389 741.548,664.696C744.179,671.558 742.355,682.06 736.559,692.512C731.078,702.393 722.17,712.163 711.067,718.696C716.852,722.387 725.592,725.152 734.001,719.901C742.425,714.641 750.046,702.545 755.339,679.048C755.879,676.651 758.624,675.074 761.465,675.53C764.306,675.985 766.174,678.301 765.634,680.699C759.585,707.556 749.864,720.997 740.235,727.009C725.396,736.274 709.692,729.85 701.364,723.312C695.677,725.405 689.59,726.61 683.226,726.614C666.804,726.623 655.749,719.991 649.222,710.589C642.901,701.485 640.972,689.621 642.848,678.746C648.037,648.654 671.836,630.515 693.122,628.618C710.046,627.11 726.247,635.107 731.903,655.675ZM694.829,716.057C692.379,712.007 690.95,707.221 690.501,702.098C689.692,692.873 692.03,682.55 696.635,674C702.079,663.894 710.76,656.468 720.825,654.921C718.338,647.958 714.25,643.093 709.088,640.25C701.766,636.217 692.51,636.469 683.744,640.001C669.52,645.731 656.693,659.87 653.218,680.02C651.682,688.924 653.088,698.665 658.264,706.12C663.044,713.005 671.194,717.779 683.219,717.772C687.259,717.769 691.14,717.154 694.829,716.057ZM726.592,663.594C726.591,663.594 726.59,663.594 726.589,663.594C722.223,662.997 718.275,664.485 714.862,667.064C709.716,670.953 705.776,677.193 703.373,684.019C699.969,693.692 699.481,704.685 704.147,712.096C711.349,708.078 717.489,702.326 722.199,696.174C729.339,686.845 733.323,676.488 732.094,669.344C731.581,666.359 730.014,664.062 726.592,663.594Z" style="fill:rgb(254,255,254);"/>
        </g>
    </g>
</svg>
